<svg width="97" height="97" viewBox="0 0 97 97" fill="none" xmlns="http://www.w3.org/2000/svg">
<path opacity="0.4" d="M88.5458 56.4292V68.3904C88.5458 75.009 83.2031 80.3517 76.5846 80.3517H72.5975C72.5975 75.9659 69.0091 72.3775 64.6233 72.3775C60.2375 72.3775 56.6492 75.9659 56.6492 80.3517H40.7008C40.7008 75.9659 37.1125 72.3775 32.7267 72.3775C28.3409 72.3775 24.7525 75.9659 24.7525 80.3517H20.7654C14.1469 80.3517 8.80417 75.009 8.80417 68.3904V56.4292H52.6621C57.0479 56.4292 60.6363 52.8408 60.6363 48.455V20.5454H67.9726C70.8433 20.5454 73.4747 22.1004 74.9101 24.5724L81.7278 36.4937H76.5846C74.3917 36.4937 72.5975 38.2879 72.5975 40.4808V52.4421C72.5975 54.635 74.3917 56.4292 76.5846 56.4292H88.5458Z" fill="#113B63"/>
<path d="M32.7267 88.3258C37.1307 88.3258 40.7008 84.7557 40.7008 80.3517C40.7008 75.9477 37.1307 72.3775 32.7267 72.3775C28.3227 72.3775 24.7525 75.9477 24.7525 80.3517C24.7525 84.7557 28.3227 88.3258 32.7267 88.3258Z" fill="#113B63"/>
<path d="M64.6233 88.3258C69.0273 88.3258 72.5975 84.7557 72.5975 80.3517C72.5975 75.9477 69.0273 72.3775 64.6233 72.3775C60.2193 72.3775 56.6492 75.9477 56.6492 80.3517C56.6492 84.7557 60.2193 88.3258 64.6233 88.3258Z" fill="#113B63"/>
<path d="M88.5458 50.5683V56.4292H76.5846C74.3917 56.4292 72.5975 54.635 72.5975 52.4421V40.4808C72.5975 38.2879 74.3917 36.4937 76.5846 36.4937H81.7278L87.5092 46.6208C88.187 47.817 88.5458 49.1728 88.5458 50.5683Z" fill="#113B63"/>
<path d="M56.6492 8.58417H24.7525C16.9777 8.58417 10.5187 14.1661 9.1232 21.5422H28.7396C30.3743 21.5422 31.7299 22.8978 31.7299 24.5325C31.7299 26.1672 30.3743 27.5228 28.7396 27.5228H8.80417V33.5034H20.7654C22.4001 33.5034 23.7557 34.859 23.7557 36.4938C23.7557 38.1285 22.4001 39.4841 20.7654 39.4841H8.80417V45.4647H12.7913C14.426 45.4647 15.7816 46.8203 15.7816 48.455C15.7816 50.0897 14.426 51.4453 12.7913 51.4453H8.80417V56.4292H52.6621C57.0479 56.4292 60.6363 52.8408 60.6363 48.455V12.5713C60.6363 10.3784 58.8421 8.58417 56.6492 8.58417Z" fill="#113B63"/>
<path d="M9.1232 21.5422H4.81708C3.18238 21.5422 1.82677 22.8978 1.82677 24.5325C1.82677 26.1672 3.18238 27.5228 4.81708 27.5228H8.80416V24.5325C8.80416 23.4958 8.92384 22.4991 9.1232 21.5422Z" fill="#113B63"/>
<path d="M4.81708 33.5034C3.18238 33.5034 1.82677 34.8591 1.82677 36.4938C1.82677 38.1285 3.18238 39.4841 4.81708 39.4841H8.80416V33.5034H4.81708Z" fill="#113B63"/>
<path d="M4.81708 45.4647C3.18238 45.4647 1.82677 46.8203 1.82677 48.455C1.82677 50.0897 3.18238 51.4453 4.81708 51.4453H8.80416V45.4647H4.81708Z" fill="#113B63"/>
</svg>
