<svg className="carrrinho" width="97" height="97" viewBox="0 0 97 97" fill="none" xmlns="http://www.w3.org/2000/svg">
    <path d="M65.6201 90.3194C69.4736 90.3194 72.5975 87.1955 72.5975 83.342C72.5975 79.4885 69.4736 76.3646 65.6201 76.3646C61.7666 76.3646 58.6427 79.4885 58.6427 83.342C58.6427 87.1955 61.7666 90.3194 65.6201 90.3194Z" fill="#A0B1C1" />
    <path d="M33.7234 90.3194C37.5769 90.3194 40.7008 87.1955 40.7008 83.342C40.7008 79.4885 37.5769 76.3646 33.7234 76.3646C29.8699 76.3646 26.746 79.4885 26.746 83.342C26.746 87.1955 29.8699 90.3194 33.7234 90.3194Z" fill="#A0B1C1" />
    <path d="M20.1275 16.3191L19.3301 26.0875C19.1706 27.9614 20.6458 29.5163 22.5197 29.5163H83.562C85.2366 29.5163 86.632 28.2405 86.7516 26.5659C87.27 19.5088 81.8874 13.7674 74.8303 13.7674H25.829C25.4303 12.013 24.6329 10.3385 23.3969 8.94299C21.4034 6.82984 18.6124 5.59384 15.7417 5.59384H8.80417C7.16946 5.59384 5.81386 6.94945 5.81386 8.58415C5.81386 10.2189 7.16946 11.5745 8.80417 11.5745H15.7417C16.9777 11.5745 18.1339 12.0928 18.9712 12.9699C19.8085 13.887 20.2072 15.0831 20.1275 16.3191Z" fill="#A0B1C1" />
    <path d="M82.6051 35.497H21.4432C19.7686 35.497 18.413 36.7728 18.2536 38.4075L16.8182 55.7514C16.26 62.5693 21.6027 68.3904 28.4206 68.3904H72.757C78.7376 68.3904 84.0006 63.4863 84.4391 57.5057L85.7549 38.886C85.9144 37.0519 84.479 35.497 82.6051 35.497Z" fill="#A0B1C1" />
</svg>