<svg width="96" height="96" viewBox="0 0 96 96" fill="none" xmlns="http://www.w3.org/2000/svg">
<path d="M47.845 7.97418C25.8762 7.97418 7.97417 25.8762 7.97417 47.845C7.97417 69.8138 25.8762 87.7159 47.845 87.7159C69.8138 87.7159 87.7158 69.8138 87.7158 47.845C87.7158 25.8762 69.8138 7.97418 47.845 7.97418ZM65.1888 62.0789C64.6306 63.0358 63.6339 63.5541 62.5972 63.5541C62.0789 63.5541 61.5606 63.4345 61.0821 63.1155L48.7222 55.7394C45.6521 53.9054 43.3795 49.8784 43.3795 46.3299V29.9829C43.3795 28.3482 44.7351 26.9926 46.3698 26.9926C48.0045 26.9926 49.3601 28.3482 49.3601 29.9829V46.3299C49.3601 47.7653 50.5562 49.8784 51.7922 50.5961L64.1522 57.9722C65.5875 58.8095 66.066 60.6436 65.1888 62.0789Z" fill="#113B63" fill-opacity="0.4"/>
</svg>