 <svg width="97" height="97" viewBox="0 0 97 97" fill="none" xmlns="http://www.w3.org/2000/svg">
    <path d="M65.3876 8.58163H31.9745C17.4609 8.58163 8.80862 17.2339 8.80862 31.7475V65.1207C8.80862 79.6741 17.4609 88.3264 31.9745 88.3264H65.3477C79.8613 88.3264 88.5136 79.6741 88.5136 65.1606V31.7475C88.5534 17.2339 79.9011 8.58163 65.3876 8.58163ZM31.7353 37.0505C31.7353 33.8209 34.3668 31.1494 37.6364 31.1494C40.866 31.1494 43.5375 33.781 43.5375 37.0505C43.5375 40.2802 40.9059 42.9516 37.6364 42.9516C34.3668 42.9118 31.7353 40.2802 31.7353 37.0505ZM36.0016 64.4827C35.244 64.4827 34.4865 64.2036 33.8884 63.6056C32.7321 62.4493 32.7321 60.5752 33.8884 59.3791L60.0048 33.2627C61.1611 32.1064 63.075 32.1064 64.2313 33.2627C65.3876 34.419 65.3876 36.3328 64.2313 37.4891L38.1148 63.6056C37.5168 64.2036 36.7592 64.4827 36.0016 64.4827ZM63.7129 65.7587C60.4833 65.7587 57.8118 63.1271 57.8118 59.8575C57.8118 56.6279 60.4434 53.9564 63.7129 53.9564C66.9426 53.9564 69.6141 56.588 69.6141 59.8575C69.6141 63.1271 66.9825 65.7587 63.7129 65.7587Z" fill="#A0B1C1"/>
    </svg>